<svg width="50" height="50" viewBox="0 0 50 50" fill="none"
                                    xmlns="http://www.w3.org/2000/svg">
                                    <rect width="50" height="50" rx="25" fill="white" />
                                    <path
                                        d="M36.9993 19.6926L36.6581 20.4828C36.6047 20.6115 36.5147 20.7214 36.3995 20.7987C36.2842 20.876 36.1487 20.9172 36.0102 20.9172C35.8717 20.9172 35.7362 20.876 35.6209 20.7987C35.5056 20.7214 35.4157 20.6115 35.3623 20.4828L35.0211 19.6926C34.421 18.2948 33.3222 17.1741 31.9413 16.5516L30.8883 16.0783C30.7606 16.0192 30.6524 15.9244 30.5765 15.8053C30.5007 15.6862 30.4603 15.5476 30.4603 15.4061C30.4603 15.2646 30.5007 15.1261 30.5765 15.007C30.6524 14.8878 30.7606 14.7931 30.8883 14.7339L31.883 14.2886C33.2986 13.6484 34.4163 12.4862 35.0058 11.0414L35.3568 10.1885C35.4083 10.0563 35.4982 9.94291 35.6148 9.86295C35.7314 9.783 35.8691 9.74023 36.0102 9.74023C36.1513 9.74023 36.289 9.783 36.4056 9.86295C36.5221 9.94291 36.6121 10.0563 36.6636 10.1885L37.0146 11.0401C37.6035 12.485 38.7207 13.6477 40.136 14.2886L41.1321 14.7353C41.2594 14.7946 41.3672 14.8894 41.4428 15.0084C41.5184 15.1274 41.5585 15.2656 41.5585 15.4068C41.5585 15.548 41.5184 15.6863 41.4428 15.8053C41.3672 15.9243 41.2594 16.019 41.1321 16.0783L40.0777 16.5502C38.6971 17.1733 37.5987 18.2945 36.9993 19.6926ZM38.7848 36.2663V23.226C37.8935 23.542 36.9552 23.703 36.0102 23.702C34.727 23.702 33.5131 23.4089 32.4268 22.8881C33.2716 24.6713 33.4629 26.6975 32.967 28.6088C32.4711 30.5201 31.3198 32.1936 29.7166 33.3335C28.1134 34.4734 26.1614 35.0065 24.2055 34.8385C22.2496 34.6706 20.4156 33.8124 19.0275 32.4156C17.6395 31.0187 16.7866 29.1732 16.6197 27.2049C16.4528 25.2367 16.9825 23.2724 18.1153 21.6591C19.2481 20.0458 20.9111 18.8873 22.8104 18.3882C24.7098 17.8892 26.7233 18.0817 28.4953 18.9318C27.9622 17.8054 27.6859 16.5735 27.6865 15.3259C27.6865 14.3472 27.853 13.4077 28.1595 12.5338H20.7501L17.9755 15.3259H12.4263C12.0584 15.3259 11.7056 15.4729 11.4454 15.7347C11.1852 15.9966 11.0391 16.3516 11.0391 16.7219V36.2663C11.0391 36.6365 11.1852 36.9916 11.4454 37.2534C11.7056 37.5152 12.0584 37.6623 12.4263 37.6623H37.3975C37.7654 37.6623 38.1183 37.5152 38.3784 37.2534C38.6386 36.9916 38.7848 36.6365 38.7848 36.2663ZM24.9119 32.0782C23.4402 32.0782 22.0287 31.4899 20.9881 30.4427C19.9474 29.3954 19.3628 27.9751 19.3628 26.4941C19.3628 25.0131 19.9474 23.5927 20.9881 22.5455C22.0287 21.4983 23.4402 20.91 24.9119 20.91C26.3836 20.91 27.7951 21.4983 28.8358 22.5455C29.8764 23.5927 30.4611 25.0131 30.4611 26.4941C30.4611 27.9751 29.8764 29.3954 28.8358 30.4427C27.7951 31.4899 26.3836 32.0782 24.9119 32.0782Z"
                                        fill="#B03140" />
                                </svg>