<svg class="like-icon" width="27" height="30" viewBox="0 0 27 32" fill="none"
                                xmlns="http://www.w3.org/2000/svg">
                                <path
                                    d="M25.999 14.324C25.999 23.2386 16.8527 29.2521 14.2078 30.803C13.9914 30.9322 13.7475 31 13.4995 31C13.2515 31 13.0076 30.9322 12.7912 30.803C10.1463 29.2521 1 23.2386 1 14.324C1 6.32958 7.05643 1 13.4995 1C20.1659 1 25.999 6.32958 25.999 14.324Z"
                                    stroke="#B03140" stroke-width="2" />
                                <path
                                    d="M8.15107 16.1998L12.9474 22.1715C13.1153 22.3805 13.1999 22.4858 13.304 22.4858C13.408 22.4858 13.4927 22.3822 13.6606 22.1715L18.4569 16.1998C19.4947 14.9077 19.6556 12.8832 18.8412 11.3631C17.5717 8.99479 14.7428 9.1157 13.6078 11.5876L13.4122 12.016C13.4013 12.0397 13.3855 12.0594 13.3665 12.0731C13.3475 12.0867 13.3259 12.0939 13.304 12.0939C13.282 12.0939 13.2605 12.0867 13.2415 12.0731C13.2225 12.0594 13.2067 12.0397 13.1958 12.016L13.0001 11.5894C11.8652 9.1157 9.03625 8.99479 7.76675 11.3648C6.95233 12.8849 7.11466 14.9077 8.15107 16.1998Z"
                                    stroke="#B03140" stroke-width="2" />
                            </svg>