<svg class="logo" width="373" height="53" viewBox="0 0 373 67" fill="none"
                xmlns="http://www.w3.org/2000/svg">
                <path
                    d="M21.6 7C30.8 7 37.12 8.84 52.96 8.84C57.6 8.84 60.48 7.56 60.48 7.56C60.88 7.96 61.36 8.92 61.36 10.2C61.36 14.36 58.64 17.72 51.68 17.72C46 17.72 43.04 16.44 38.4 15L30.8 58.6C29.84 64.2 30.72 66.2 30.72 66.2C30.72 66.2 29.44 67 26.16 67C20.24 67 19.12 64.44 20.16 58.28L27.68 15.32C28 13.4 28.08 12.2 28.08 12.2C25.6 11.72 24.48 11.4 21.44 11.4C14.16 11.4 10.24 15.48 10.24 20.04C10.24 22.28 11.44 23.72 13.44 23.72C14.32 23.72 14.8 23.48 14.8 23.48C14.8 23.48 14.88 23.72 14.88 24.2C14.88 26.12 12.88 28.68 8.8 28.68C3.6 28.68 0.4 25.48 0.4 20.68C0.4 12.76 7.44 7 21.6 7ZM85.485 33.56L82.045 53C81.165 57.8 82.605 60.04 85.485 60.04C88.205 60.04 91.805 57.4 93.885 53.08C94.925 53.08 95.645 53.72 95.405 55.16C94.605 59.4 88.845 67 81.085 67C75.805 67 72.125 63.72 71.725 57.96C68.445 63.88 64.045 67 59.485 67C52.925 67 47.725 62.6 47.725 53.24C47.725 35.4 58.125 27 67.485 27C71.485 27 74.285 28.6 76.125 30.92C77.405 28.04 79.405 27 83.325 27C86.045 27 87.325 27.8 87.325 27.8C87.325 27.8 86.285 29.24 85.485 33.56ZM62.685 60.04C68.365 60.04 72.605 48.04 74.125 40.04L74.845 36.28C74.125 34.68 72.605 32.44 69.565 32.44C64.125 32.44 57.965 40.52 57.965 53.4C57.965 57.88 59.725 60.04 62.685 60.04ZM107.376 41.08L114.256 44.68C120.096 47.72 122.176 51 122.176 55.24C122.176 61.56 116.816 67 105.216 67C94.9763 67 90.6562 61.72 90.6562 57.56C90.6562 54.52 93.1362 52.76 95.9363 52.76C98.6563 52.76 99.7763 53.88 99.7763 53.88C99.7763 53.88 99.3763 54.76 99.3763 56.2C99.3763 60.12 101.456 62.92 106.016 63C110.576 63 112.736 60.6 112.736 57.96C112.736 56.04 111.696 54.44 108.816 52.92L100.976 48.76C97.1363 46.68 94.0162 44.12 94.0162 38.76C94.0162 32.28 99.6163 27 110.976 27C120.896 27 125.536 32.28 125.536 36.44C125.536 39.48 123.056 41.24 120.256 41.24C117.536 41.24 116.416 40.12 116.416 40.12C116.416 40.12 116.816 39.24 116.816 37.8C116.816 34.04 114.496 31 110.016 31C105.616 31 103.456 33.24 103.456 36.04C103.456 38.36 104.736 39.72 107.376 41.08ZM130.661 27H134.421L135.221 22.68C136.181 17.64 135.301 15.8 135.301 15.8C135.301 15.8 136.501 15.08 139.461 15.08C145.621 15.08 146.421 17.4 145.381 23L144.661 27H152.581C152.581 27 153.141 27.64 153.141 28.68C153.141 30.04 152.181 31 150.421 31H143.941L140.101 53C139.301 57.4 140.901 60.04 144.661 60.04C149.221 60.04 152.501 56.44 154.261 53.08C155.301 53.08 156.021 53.8 155.701 55.16C154.501 60.04 148.021 67 140.421 67C134.501 67 129.861 62.84 129.861 56.44C129.861 54.6 130.021 51.96 130.741 47.88L133.701 31H128.501C128.501 31 127.941 30.36 127.941 29.32C127.941 27.96 128.901 27 130.661 27ZM170.649 67C160.169 67 152.569 60.52 152.569 49.72C152.569 35.56 163.369 27 174.009 27C182.169 27 185.449 31.24 185.449 35.32C185.449 42.6 177.049 47.4 162.969 50.04C163.449 56.04 167.609 60.68 174.409 60.68C182.969 60.68 187.849 56.44 190.009 53.08C191.049 53.08 191.609 53.72 191.289 55.16C190.569 58.68 182.889 67 170.649 67ZM174.089 31C169.529 31 163.929 36.28 163.049 46.28C172.809 43.96 176.889 39.08 176.889 33.8C176.889 32.12 175.769 31 174.089 31ZM210.663 7C219.863 7 226.183 8.84 242.023 8.84C246.663 8.84 249.543 7.56 249.543 7.56C249.943 7.96 250.423 8.92 250.423 10.2C250.423 14.36 247.703 17.72 240.743 17.72C235.063 17.72 232.103 16.44 227.463 15L219.863 58.6C218.903 64.2 219.783 66.2 219.783 66.2C219.783 66.2 218.503 67 215.223 67C209.303 67 208.183 64.44 209.223 58.28L216.743 15.32C217.063 13.4 217.143 12.2 217.143 12.2C214.663 11.72 213.543 11.4 210.503 11.4C203.223 11.4 199.303 15.48 199.303 20.04C199.303 22.28 200.503 23.72 202.503 23.72C203.383 23.72 203.863 23.48 203.863 23.48C203.863 23.48 203.943 23.72 203.943 24.2C203.943 26.12 201.943 28.68 197.863 28.68C192.663 28.68 189.462 25.48 189.462 20.68C189.462 12.76 196.503 7 210.663 7ZM274.548 33.56L271.108 53C270.228 57.8 271.668 60.04 274.548 60.04C277.268 60.04 280.868 57.4 282.948 53.08C283.988 53.08 284.708 53.72 284.468 55.16C283.668 59.4 277.908 67 270.148 67C264.868 67 261.188 63.72 260.788 57.96C257.508 63.88 253.108 67 248.548 67C241.988 67 236.787 62.6 236.787 53.24C236.787 35.4 247.188 27 256.548 27C260.548 27 263.348 28.6 265.188 30.92C266.468 28.04 268.468 27 272.388 27C275.108 27 276.388 27.8 276.388 27.8C276.388 27.8 275.348 29.24 274.548 33.56ZM251.748 60.04C257.428 60.04 261.668 48.04 263.188 40.04L263.908 36.28C263.188 34.68 261.668 32.44 258.628 32.44C253.188 32.44 247.028 40.52 247.028 53.4C247.028 57.88 248.788 60.04 251.748 60.04ZM282.839 49.4L290.119 8.2C290.999 3.16 290.199 1.32 290.199 1.32C290.199 1.32 291.399 0.599997 294.359 0.599997C300.519 0.599997 301.239 2.92 300.279 8.52L292.439 53C291.639 57.72 292.999 60.04 295.879 60.04C299.079 60.04 302.679 57.4 304.759 53.08C305.799 53.08 306.519 53.72 306.279 55.16C305.479 59.4 299.239 67 291.479 67C285.959 67 282.119 63.4 282.119 57C282.119 55.4 282.279 52.6 282.839 49.4ZM321.274 67C310.794 67 303.194 60.52 303.194 49.72C303.194 35.56 313.994 27 324.634 27C332.794 27 336.074 31.24 336.074 35.32C336.074 42.6 327.674 47.4 313.594 50.04C314.074 56.04 318.234 60.68 325.034 60.68C333.594 60.68 338.474 56.44 340.634 53.08C341.674 53.08 342.234 53.72 341.914 55.16C341.194 58.68 333.514 67 321.274 67ZM324.714 31C320.154 31 314.554 36.28 313.674 46.28C323.434 43.96 327.514 39.08 327.514 33.8C327.514 32.12 326.394 31 324.714 31ZM354.408 41.08L361.288 44.68C367.128 47.72 369.208 51 369.208 55.24C369.208 61.56 363.848 67 352.247 67C342.008 67 337.687 61.72 337.687 57.56C337.687 54.52 340.167 52.76 342.968 52.76C345.688 52.76 346.808 53.88 346.808 53.88C346.808 53.88 346.408 54.76 346.408 56.2C346.408 60.12 348.488 62.92 353.048 63C357.608 63 359.768 60.6 359.768 57.96C359.768 56.04 358.728 54.44 355.848 52.92L348.008 48.76C344.168 46.68 341.047 44.12 341.047 38.76C341.047 32.28 346.648 27 358.008 27C367.928 27 372.568 32.28 372.568 36.44C372.568 39.48 370.088 41.24 367.288 41.24C364.568 41.24 363.448 40.12 363.448 40.12C363.448 40.12 363.848 39.24 363.848 37.8C363.848 34.04 361.528 31 357.048 31C352.648 31 350.488 33.24 350.488 36.04C350.488 38.36 351.768 39.72 354.408 41.08Z"
                    fill="#CFA557"/>
            </svg>