<svg width="28.000000" height="28.000000" viewBox="0 0 28 28" fill="none"
                xmlns="http://www.w3.org/2000/svg" xmlns:xlink="http://www.w3.org/1999/xlink">
                <desc>
                    Created with Pixso.
                </desc>
                <defs />
                <rect id="ic:round-navigate-next" rx="0.000000" width="27.000000" height="27.000000"
                    transform="matrix(-1 0 0 1 28.5 0.5)" fill="#FFFFFF" fill-opacity="0" />
                <path id="Vector"
                    d="M17.13 7.82C17.24 7.93 17.33 8.06 17.39 8.2C17.44 8.34 17.47 8.49 17.47 8.65C17.47 8.8 17.44 8.95 17.39 9.09C17.33 9.23 17.24 9.36 17.13 9.47L12.61 14L17.13 18.52C17.35 18.74 17.47 19.04 17.47 19.34C17.47 19.65 17.35 19.95 17.13 20.17C16.92 20.38 16.62 20.51 16.31 20.51C16 20.51 15.71 20.38 15.49 20.17L10.13 14.81C10.03 14.7 9.94 14.58 9.88 14.43C9.82 14.29 9.79 14.14 9.79 13.99C9.79 13.84 9.82 13.68 9.88 13.54C9.94 13.4 10.03 13.27 10.13 13.17L15.49 7.81C15.93 7.37 16.68 7.37 17.13 7.82Z"
                    fill="#5A4444" fill-opacity="1.000000" fill-rule="nonzero" />
            </svg>