<svg width="45" height="45" viewBox="0 0 45 45" fill="none" xmlns="http://www.w3.org/2000/svg">
                            <mask id="mask0_53_41" style="mask-type:alpha" maskUnits="userSpaceOnUse" x="0" y="0"
                                width="45" height="45">
                                <circle cx="22.5" cy="22.5" r="22.5" fill="#D67272" />
                            </mask>
                            <g mask="url(#mask0_53_41)">
                                <rect width="45" height="45" fill="#FEF6E3" />
                                <path
                                    d="M16.2906 10.4804C16.0544 10.6889 15.867 10.9367 15.7391 11.2093C15.6112 11.482 15.5454 11.7743 15.5454 12.0696C15.5454 12.3648 15.6112 12.6571 15.7391 12.9298C15.867 13.2025 16.0544 13.4502 16.2906 13.6587L26.1775 22.4047L16.2906 31.1507C15.8142 31.5721 15.5465 32.1438 15.5465 32.7398C15.5465 33.3359 15.8142 33.9075 16.2906 34.329C16.7671 34.7505 17.4133 34.9872 18.0871 34.9872C18.7609 34.9872 19.4071 34.7505 19.8835 34.329L31.5795 23.9826C31.8158 23.774 32.0032 23.5263 32.131 23.2537C32.2589 22.981 32.3247 22.6886 32.3247 22.3934C32.3247 22.0982 32.2589 21.8059 32.131 21.5332C32.0032 21.2605 31.8158 21.0128 31.5795 20.8043L19.8835 10.4579C18.9152 9.60131 17.2844 9.60131 16.2906 10.4804Z"
                                    fill="#B6801B" />
                            </g>
                        </svg>