 <svg width="25" height="25" viewBox="0 0 30 30" fill="none" xmlns="http://www.w3.org/2000/svg">
                        <path fill-rule="evenodd" clip-rule="evenodd"
                            d="M15.0003 0C14.7012 0 14.4143 0.118823 14.2028 0.330331C13.9913 0.541838 13.8725 0.828703 13.8725 1.12782V6.02707C13.8725 6.32618 13.9913 6.61305 14.2028 6.82455C14.4143 7.03606 14.7012 7.15488 15.0003 7.15488C15.2994 7.15488 15.5863 7.03606 15.7978 6.82455C16.0093 6.61305 16.1281 6.32618 16.1281 6.02707V2.30526C18.972 2.55815 21.6486 3.75866 23.7287 5.71431C25.8089 7.66995 27.1721 10.2675 27.5998 13.0903C28.0275 15.9132 27.495 18.798 26.0875 21.282C24.68 23.7661 22.4792 25.7056 19.8379 26.7896C17.1966 27.8736 14.2677 28.0393 11.521 27.2601C8.77433 26.4808 6.36883 24.8018 4.69023 22.4923C3.01163 20.1828 2.15716 17.3765 2.26383 14.5234C2.37049 11.6703 3.43212 8.93563 5.27848 6.75789C5.37913 6.64572 5.45627 6.51452 5.50535 6.37204C5.55444 6.22955 5.57447 6.07868 5.56426 5.92832C5.55406 5.77797 5.51382 5.63118 5.44594 5.49664C5.37805 5.36209 5.28388 5.24252 5.16901 5.14498C5.05413 5.04744 4.92087 4.97391 4.77709 4.92874C4.63332 4.88356 4.48196 4.86766 4.33193 4.88197C4.18191 4.89628 4.03628 4.94052 3.90364 5.01206C3.77101 5.0836 3.65405 5.18099 3.55969 5.29849C1.34936 7.90499 0.0953438 11.1881 0.00522002 14.6044C-0.0849037 18.0207 0.994264 21.3654 3.0641 24.0848C5.13393 26.8042 8.07031 28.7353 11.3872 29.5584C14.7041 30.3815 18.2027 30.0473 21.3037 28.6111C24.4048 27.1749 26.9225 24.7228 28.44 21.6607C29.9576 18.5986 30.384 15.1101 29.6487 11.7727C28.9134 8.43521 27.0605 5.44888 24.3966 3.308C21.7328 1.16712 18.4178 6.51004e-05 15.0003 0ZM13.286 16.3083L7.61081 8.39774C7.53525 8.28915 7.50027 8.15745 7.512 8.02568C7.52372 7.89391 7.5814 7.77046 7.67494 7.67691C7.76849 7.58337 7.89194 7.52569 8.02371 7.51397C8.15549 7.50224 8.28718 7.53722 8.39577 7.61278L16.3108 13.2857C16.5655 13.4691 16.7772 13.7056 16.9315 13.9789C17.0857 14.2522 17.1787 14.5557 17.204 14.8685C17.2292 15.1813 17.1863 15.4958 17.078 15.7903C16.9697 16.0849 16.7987 16.3523 16.5768 16.5742C16.3549 16.7961 16.0874 16.9671 15.7929 17.0754C15.4984 17.1837 15.1838 17.2267 14.871 17.2014C14.5582 17.1761 14.2547 17.0831 13.9814 16.9289C13.7081 16.7747 13.4716 16.5629 13.2882 16.3083"
                            fill="#B03140" />
                    </svg>